<svg xmlns="http://www.w3.org/2000/svg" width="24" height="24" viewBox="0 0 256 256" fill="#FFFFFF">
<path d="M128,10C62.8,10,10,62.8,10,128c0,65.2,52.8,118,118,118c65.2,0,118-52.8,118-118C246,62.8,193.2,10,128,10z M128,221.2c-51.4,0-93.2-41.8-93.2-93.2c0-51.4,41.8-93.2,93.2-93.2c51.4,0,93.2,41.8,93.2,93.2C221.2,179.4,179.4,221.2,128,221.2z"/>
<path d="M202.8,84.2c-0.6-1.1-1.9-1.6-3.1-1.3l-83.9,22.9c-0.5,0.1-0.9,0.4-1.2,0.7l-61,61.9c-0.9,0.9-1,2.2-0.4,3.3s1.9,1.6,3.1,1.3l83.8-22.9c0.2,0,0.5-0.1,0.7-0.3c0.2-0.1,0.4-0.3,0.6-0.4l60.9-61.9C203.2,86.6,203.4,85.3,202.8,84.2z M76.3,158.3l40.8-41.5l15.3,26.2L76.3,158.3z"/>
</svg>