<?xml version="1.0" encoding="UTF-8"?>
<svg version="1.1" xmlns="http://www.w3.org/2000/svg" width="512" height="512">
<path d="M0 0 C7.72664939 7.31423796 13.44480688 17.07448063 14.2121582 27.88305664 C14.24448738 29.30841651 14.25193157 30.73449514 14.23828125 32.16015625 C14.23339188 32.95978287 14.2285025 33.75940948 14.22346497 34.58326721 C13.93609692 45.43283135 11.73851962 56.05168707 9.64233398 66.67016602 C8.92912455 70.29253871 8.24701422 73.91983882 7.56835938 77.54882812 C7.12418833 79.86492781 6.67828965 82.180697 6.23046875 84.49609375 C5.92558784 86.11468544 5.92558784 86.11468544 5.61454773 87.76597595 C5.4145668 88.76544754 5.21458588 89.76491913 5.00854492 90.79467773 C4.83755783 91.6700267 4.66657074 92.54537567 4.49040222 93.44725037 C3.65102339 96.12868544 2.66709392 97.76303944 0.75 99.8125 C-3.22344161 100.91623378 -5.33999772 101.22793583 -9.125 99.5 C-11.25 97.8125 -11.25 97.8125 -12.25 95.8125 C-12.63215774 89.71808976 -11.49409129 84.11225125 -10.28125 78.15625 C-9.87067251 76.05997829 -9.4605304 73.96362128 -9.05078125 71.8671875 C-8.40455356 68.59941482 -7.75406282 65.33263537 -7.09521484 62.06738281 C-1.60745651 39.5772851 -1.60745651 39.5772851 -6.71484375 17.89453125 C-12.12267818 10.56024181 -19.38414617 6.94409443 -28.359375 5.46484375 C-48.56029196 4.56441528 -69.54672885 13.5405047 -84.62109375 26.40625 C-101.32335852 41.69390988 -108.75226967 59.94366919 -113.6875 81.5 C-113.88009399 82.32885712 -114.07268799 83.15771423 -114.27111816 84.01168823 C-125.74906471 133.48154335 -132.20965749 184.02644645 -133.25 234.8125 C-133.28287109 236.12395996 -133.28287109 236.12395996 -133.31640625 237.46191406 C-134.25112387 278.57391071 -130.84435015 320.40494081 -123.25 360.8125 C-122.21552734 360.21501953 -122.21552734 360.21501953 -121.16015625 359.60546875 C-108.34469617 352.38029167 -95.8044716 348.79921684 -80.9921875 352.0078125 C-74.7605671 353.83646464 -68.66275926 356.20399382 -63.25 359.8125 C-60.74326203 349.48433025 -58.73629449 339.09816096 -56.80761719 328.65014648 C-56.47395551 326.85440061 -56.1400401 325.05870187 -55.80589294 323.26304626 C-55.09059253 319.41617472 -54.37705116 315.56898271 -53.66490936 311.72152519 C-52.53148148 305.59815757 -51.39395432 299.47555561 -50.25592041 293.3530426 C-48.44893346 283.62903322 -46.64455491 273.90454202 -44.84134507 264.17983156 C-41.63148155 246.86905347 -38.41878033 229.55880272 -35.20276189 212.24916703 C-34.2608748 207.17906248 -33.31969512 202.10882883 -32.38027191 197.03826714 C-30.5005737 186.8933052 -28.61337384 176.74986092 -26.70670152 166.60993034 C-25.719572 161.35078943 -24.75223654 156.08843262 -23.79882312 150.82307881 C-23.18412323 147.4434678 -22.55685106 144.06627135 -21.926682 140.68951428 C-21.63599069 139.11628731 -21.35074529 137.54204281 -21.07136869 135.96676719 C-20.68937382 133.81650462 -20.28825704 131.6706593 -19.88238525 129.52479553 C-19.66248051 128.31875703 -19.44257576 127.11271852 -19.21600723 125.8701334 C-18.13605615 122.4518417 -17.08878752 120.96878972 -14.25 118.8125 C-10.61980218 118.35872527 -8.22682053 118.37550134 -4.875 119.875 C-2.49802122 122.70909008 -2.56837654 125.16001194 -2.25 128.8125 C-2.60601234 132.23978424 -2.60601234 132.23978424 -3.29507446 135.89611816 C-3.41980491 136.57479273 -3.54453536 137.2534673 -3.67304552 137.95270777 C-4.09130936 140.21341973 -4.52536672 142.47079659 -4.95947266 144.72851562 C-5.26431293 146.35798997 -5.56816524 147.98764941 -5.87110901 149.61747742 C-6.69887356 154.0554145 -7.54036541 158.49065187 -8.38415575 162.92556572 C-9.27919037 167.64337055 -10.16115615 172.36361781 -11.04452515 177.08361816 C-12.73440074 186.10237739 -14.43537489 195.11900521 -16.14056242 204.13488054 C-18.02640922 214.10793769 -19.90226412 224.08286151 -21.77613878 234.05817413 C-22.32821628 236.99657957 -22.88067254 239.93491358 -23.43322372 242.87322998 C-25.26054675 252.59208409 -27.08358848 262.31171723 -28.8994751 272.03271484 C-29.61524973 275.86171933 -30.3314674 279.69064077 -31.04785156 283.51953125 C-31.22297539 284.45613335 -31.39809922 285.39273544 -31.57852983 286.35771942 C-33.79505635 298.20270726 -36.06556752 310.03550726 -38.39894295 321.8580246 C-39.54753848 327.68181678 -40.67317559 333.50996591 -41.79174888 339.33959246 C-42.67238298 343.91939313 -43.5821787 348.49199307 -44.51603889 353.06122017 C-45.0768791 355.84280227 -45.60825191 358.62941618 -46.13149118 361.41829109 C-46.48971365 363.27995712 -46.88304925 365.134763 -47.27793503 366.98899841 C-48.65556947 374.54426338 -47.95482033 379.28299794 -44.50274086 386.17211151 C-42.46348173 390.47023613 -42.12344945 394.47524669 -42.07299805 399.18188477 C-42.06016281 400.2296962 -42.04732758 401.27750763 -42.03410339 402.35707092 C-42.02302299 404.03850441 -42.02302299 404.03850441 -42.01171875 405.75390625 C-42.003647 406.9137352 -41.99557526 408.07356415 -41.98725891 409.26853943 C-41.97344922 411.71701575 -41.96271319 414.16551108 -41.95483398 416.61401367 C-41.93754708 420.36478603 -41.89362346 424.11469345 -41.84960938 427.86523438 C-41.83948831 430.24478519 -41.83097038 432.62434349 -41.82421875 435.00390625 C-41.80671066 436.12688614 -41.78920258 437.24986603 -41.77116394 438.40687561 C-41.77555229 439.97386452 -41.77555229 439.97386452 -41.7800293 441.57250977 C-41.77122993 442.94887352 -41.77122993 442.94887352 -41.76225281 444.3530426 C-42.40110219 447.57443038 -43.75707315 448.7485688 -46.25 450.8125 C-48.6437134 452.0093567 -50.10821261 451.93571706 -52.78042603 451.93275452 C-53.73397476 451.93412918 -54.6875235 451.93550385 -55.66996765 451.93692017 C-56.71941055 451.93332489 -57.76885345 451.92972961 -58.85009766 451.92602539 C-59.95254318 451.92617142 -61.05498871 451.92631744 -62.19084167 451.9264679 C-65.84860171 451.92576912 -69.50631132 451.91797833 -73.1640625 451.91015625 C-75.69469169 451.90829195 -78.22532125 451.9068681 -80.75595093 451.90586853 C-86.74473456 451.90243557 -92.73349642 451.89454755 -98.72227132 451.88451904 C-105.5395978 451.87335033 -112.35692513 451.86784554 -119.17425847 451.86282361 C-133.19951574 451.85236475 -147.22475687 451.83477001 -161.25 451.8125 C-161.38559326 452.56684326 -161.52118652 453.32118652 -161.66088867 454.09838867 C-164.49501187 467.15555717 -174.07755997 478.65686205 -182.25 488.8125 C-182.6823999 489.37557861 -183.1147998 489.93865723 -183.56030273 490.51879883 C-187.42966574 495.43928505 -191.22588202 497.40278635 -197.25 498.8125 C-203.90755411 499.21869006 -208.89339875 497.69866169 -214.25 493.8125 C-218.88818861 489.17431139 -220.99219162 485.11421697 -221.38671875 478.53125 C-221.06333764 467.77457324 -213.42622037 460.0474605 -207.25 451.8125 C-228.37 451.8125 -249.49 451.8125 -271.25 451.8125 C-272.735 456.2675 -272.735 456.2675 -274.25 460.8125 C-278.86187016 470.21361994 -284.70551165 478.65493354 -291.25 486.8125 C-291.9203125 487.68390625 -292.590625 488.5553125 -293.28125 489.453125 C-297.59329026 494.75761897 -301.34038368 497.91871878 -308.25 498.8125 C-315.32214633 499.14246017 -320.87042392 497.47148621 -326.25 492.8125 C-331.29110104 486.34954995 -332.0007538 480.80581987 -331.25 472.8125 C-329.1556244 465.2840688 -322.63288278 458.65634371 -318.25 452.8125 C-349.93 452.3175 -349.93 452.3175 -382.25 451.8125 C-382.58 453.4625 -382.91 455.1125 -383.25 456.8125 C-388.62980297 469.9747364 -399.17573047 490.29825837 -412.234375 497.0546875 C-418.38772113 499.36815484 -424.41808315 499.50993157 -430.43359375 496.82421875 C-435.65329265 493.91690259 -439.19213503 490.55286019 -441.25 484.8125 C-443.05120644 477.28136872 -442.09749952 471.51663615 -438.25 464.8125 C-436.38266027 462.3227137 -434.40803505 459.95303426 -432.40625 457.5703125 C-420.28178922 442.06330288 -415.76899124 424.28340932 -417.25 404.8125 C-420.46233615 383.84549512 -433.23089484 365.40720136 -444.25 347.8125 C-458.7739826 324.58030388 -471.05125691 297.90100614 -470.25 269.8125 C-470.745 269.9775 -471.24 270.1425 -471.75 270.3125 C-479.13046895 271.78859379 -484.87126782 270.78094788 -491.25 266.8125 C-495.17157774 263.25262118 -497.98375296 259.1529972 -498.5859375 253.859375 C-498.73194625 241.53623633 -494.63455875 236.05388177 -487.1640625 226.57421875 C-483.88486684 222.3856379 -480.78719137 218.07220676 -477.6875 213.75 C-476.58090717 212.21471543 -475.47413934 210.67955699 -474.3671875 209.14453125 C-472.87065918 207.06753964 -471.37597374 204.98950624 -469.89160156 202.90380859 C-468.70769204 201.24183476 -467.51052756 199.58932588 -466.3125 197.9375 C-465.66410156 197.03257812 -465.01570313 196.12765625 -464.34765625 195.1953125 C-460.24831623 190.53870652 -456.02110947 188.20372054 -449.953125 187.57421875 C-443.80581013 187.38823311 -439.16968029 187.94079895 -434.25 191.8125 C-430.94185079 195.24524993 -428.09591331 198.9969418 -425.25 202.8125 C-424.34690935 204.00432714 -423.44324125 205.19571689 -422.5390625 206.38671875 C-420.54082747 209.02805609 -418.56121712 211.68231803 -416.58984375 214.34375 C-414.18390781 217.58377292 -411.73058632 220.78250257 -409.25390625 223.96875 C-408.57859863 224.8460376 -407.90329102 225.7233252 -407.20751953 226.62719727 C-405.89377975 228.33296309 -404.57098152 230.03180348 -403.23779297 231.72241211 C-398.36129278 238.09533235 -394.85817116 244.21744559 -395.3125 252.4375 C-396.58352671 260.05042041 -400.11552717 264.1673968 -406.25 268.6484375 C-410.42971431 271.08116184 -414.47755091 271.13066327 -419.25 270.8125 C-422.72805296 269.78732345 -426.00949934 268.43275033 -429.25 266.8125 C-425.86548401 288.38954898 -420.4856871 306.02714173 -409.25 324.8125 C-408.59 324.8125 -407.93 324.8125 -407.25 324.8125 C-406.99347656 324.09707031 -406.73695313 323.38164062 -406.47265625 322.64453125 C-399.24301774 303.82799735 -386.3388096 290.00959205 -368.1953125 281.35546875 C-361.99514134 278.8125 -361.99514134 278.8125 -359.25 278.8125 C-359.25 275.8425 -359.25 272.8725 -359.25 269.8125 C-359.930625 269.9775 -360.61125 270.1425 -361.3125 270.3125 C-367.79446246 271.41581276 -373.53375589 271.19741318 -379.25 267.8125 C-383.87755222 263.6204821 -387.80845793 259.12162354 -388.4609375 252.75390625 C-388.82103119 244.54100006 -385.65224148 238.99927038 -380.875 232.5 C-379.98305162 231.27735929 -379.09112569 230.05470219 -378.19921875 228.83203125 C-377.72403809 228.18572754 -377.24885742 227.53942383 -376.75927734 226.87353516 C-374.60637402 223.93357886 -372.48441099 220.97167366 -370.35913086 218.01171875 C-368.16995004 214.96790373 -365.96852561 211.93308734 -363.76464844 208.89990234 C-362.80441081 207.57655746 -361.84644643 206.25155763 -360.89160156 204.92431641 C-349.96030564 189.74007641 -349.96030564 189.74007641 -342.25 187.8125 C-335.38451454 187.03909176 -329.85734464 187.60421561 -324.25 191.8125 C-315.95082266 199.3675016 -309.68079899 209.19099468 -303.13330078 218.23095703 C-301.21123393 220.86563876 -299.26418768 223.47996907 -297.30859375 226.08984375 C-296.67074951 226.94392822 -296.03290527 227.7980127 -295.37573242 228.67797852 C-294.15182799 230.3154266 -292.92428771 231.95016519 -291.69262695 233.58178711 C-286.41319524 240.6781611 -284.35589172 245.88538766 -285.25 254.8125 C-287.22268371 261.14585296 -290.37570259 264.84956518 -295.8125 268.5625 C-300.81442969 271.12759215 -305.99146299 271.79405581 -311.48046875 270.140625 C-313.42213306 269.41207131 -315.33866716 268.61727172 -317.25 267.8125 C-317.25 271.1125 -317.25 274.4125 -317.25 277.8125 C-316.29762451 277.86075928 -315.34524902 277.90901855 -314.36401367 277.95874023 C-300.68669907 278.68899356 -287.06181941 279.92734317 -273.42211914 281.15844727 C-270.38185961 281.43198269 -267.3413341 281.70240413 -264.30078125 281.97265625 C-263.37888504 282.05701431 -262.45698883 282.14137238 -261.50715637 282.22828674 C-260.64152573 282.30514206 -259.77589508 282.38199738 -258.8840332 282.46118164 C-258.1314473 282.52922501 -257.37886139 282.59726837 -256.60346985 282.66737366 C-253.82383954 282.83877912 -251.03491014 282.8125 -248.25 282.8125 C-248.58 278.5225 -248.91 274.2325 -249.25 269.8125 C-250.57 270.1425 -251.89 270.4725 -253.25 270.8125 C-259.79167461 271.3668792 -264.63136402 270.30806361 -270.25 266.8125 C-274.19980346 263.2269988 -277.01937404 259.13074014 -277.55078125 253.7890625 C-277.55464844 252.68304688 -277.55851563 251.57703125 -277.5625 250.4375 C-277.58763672 248.78621094 -277.58763672 248.78621094 -277.61328125 247.1015625 C-276.82009591 239.92025007 -272.0929455 234.66173075 -267.875 229.0625 C-266.61638928 227.37429272 -265.35859707 225.68547495 -264.1015625 223.99609375 C-263.46250977 223.13870605 -262.82345703 222.28131836 -262.16503906 221.39794922 C-258.62453609 216.61799938 -255.15909559 211.78399073 -251.68994141 206.95214844 C-250.21518256 204.90176874 -248.73293521 202.85697073 -247.25 200.8125 C-246.72946045 200.08329346 -246.2089209 199.35408691 -245.67260742 198.6027832 C-245.15545166 197.89081787 -244.6382959 197.17885254 -244.10546875 196.4453125 C-243.64551514 195.80609863 -243.18556152 195.16688477 -242.71166992 194.50830078 C-239.30337589 190.55406488 -234.22301203 188.13462031 -229.05078125 187.57421875 C-222.79069527 187.38749719 -218.38320184 188.14826695 -213.25 191.8125 C-208.18467309 196.91252599 -203.95150297 202.75090283 -199.75 208.5625 C-195.93171401 213.81740501 -192.09262883 219.04510572 -188.11328125 224.1796875 C-187.09814453 225.49888184 -187.09814453 225.49888184 -186.0625 226.84472656 C-184.76356254 228.52865183 -183.45544692 230.20555143 -182.13671875 231.87402344 C-177.29375128 238.18717746 -173.86206425 244.29151481 -174.3125 252.4375 C-175.26401694 258.24782682 -177.71581647 262.65557756 -182.125 266.625 C-187.39497352 270.31398147 -191.84410762 271.3647321 -198.25 270.8125 C-201.72633081 269.77780263 -205.00829389 268.43335306 -208.25 266.8125 C-207.26 273.7425 -206.27 280.6725 -205.25 287.8125 C-202.65125 287.915625 -200.0525 288.01875 -197.375 288.125 C-187.29057341 288.58888539 -177.24234165 289.43324717 -167.1875 290.3125 C-166.42254211 290.37821198 -165.65758423 290.44392395 -164.8694458 290.5116272 C-162.67167597 290.70139684 -160.47446043 290.89657673 -158.27734375 291.09375 C-156.99593506 291.20783203 -155.71452637 291.32191406 -154.39428711 291.43945312 C-151.25 291.8125 -151.25 291.8125 -148.25 292.8125 C-148.40339844 291.75417969 -148.55679687 290.69585937 -148.71484375 289.60546875 C-149.43764793 283.79626479 -149.61164784 277.97161619 -149.8125 272.125 C-149.8751001 270.32542847 -149.8751001 270.32542847 -149.93896484 268.48950195 C-150.28345975 257.92335094 -150.43431117 247.38265594 -150.25 236.8125 C-150.22317139 235.21656006 -150.22317139 235.21656006 -150.19580078 233.58837891 C-146.97695114 67.87636074 -146.97695114 67.87636074 -104.25 21.8125 C-103.48042969 20.96300781 -102.71085937 20.11351563 -101.91796875 19.23828125 C-78.41931558 -5.55108955 -29.67552019 -25.10664339 0 0 Z M-451.78515625 205.8671875 C-454.24688849 208.80878197 -456.49799363 211.78795011 -458.6875 214.9375 C-463.49050234 221.78771432 -468.43838164 228.52310365 -473.42749023 235.23876953 C-480.20461583 243.20118853 -480.20461583 243.20118853 -482.25 252.8125 C-480.6 253.4725 -478.95 254.1325 -477.25 254.8125 C-473.85704249 251.54460034 -473.85704249 251.54460034 -470.86328125 247.921875 C-467.2935664 243.11009498 -467.2935664 243.11009498 -464.1953125 242.2265625 C-462.0625 242.125 -462.0625 242.125 -458.25 242.8125 C-456.01252154 245.00952867 -455.3111013 246.36938412 -454.88110352 249.48779297 C-454.88037842 250.49986816 -454.87965332 251.51194336 -454.87890625 252.5546875 C-454.86448486 253.69244629 -454.85006348 254.83020508 -454.83520508 256.00244141 C-454.8277124 257.21851074 -454.82021973 258.43458008 -454.8125 259.6875 C-454.07329485 293.41346415 -443.57214846 318.75038367 -425.84790039 346.86645508 C-409.13735749 373.41762763 -396.66239526 399.47892244 -402.375 431.625 C-405.66177062 445.71989539 -411.6673636 457.40983002 -420.609375 468.82421875 C-421.73085938 470.27248047 -421.73085938 470.27248047 -422.875 471.75 C-423.56851563 472.60464844 -424.26203125 473.45929688 -424.9765625 474.33984375 C-426.57657408 476.78140913 -426.57657408 476.78140913 -425.57421875 479.55859375 C-424.44007284 481.88928456 -424.44007284 481.88928456 -422.4375 482.9375 C-418.90748057 482.7357846 -417.59404407 480.34678532 -415.25 477.8125 C-396.98489451 456.21932913 -389.37292179 430.96355849 -391.25 402.8125 C-394.138725 379.81543074 -406.65096365 358.8959786 -418.8125 339.6875 C-437.22210512 310.5969696 -449.50455169 278.7760543 -443.88378906 243.51513672 C-442.98827955 239.90424128 -442.44402705 238.94185136 -439.25 236.8125 C-437.05859375 236.6953125 -437.05859375 236.6953125 -434.6875 236.9375 C-433.90246094 237.00195312 -433.11742187 237.06640625 -432.30859375 237.1328125 C-430.25 237.8125 -430.25 237.8125 -429.24609375 239.48046875 C-428.75302734 240.63482422 -428.75302734 240.63482422 -428.25 241.8125 C-426.83118233 243.90238009 -425.36867311 245.96294747 -423.875 248 C-423.10414063 249.06605469 -422.33328125 250.13210938 -421.5390625 251.23046875 C-419.51154974 253.86767226 -419.51154974 253.86767226 -417.1015625 254.796875 C-414.98899477 255.01804773 -414.98899477 255.01804773 -413 252.875 C-412.13375 251.8540625 -412.13375 251.8540625 -411.25 250.8125 C-413.81510118 244.92333512 -417.63055412 240.16969074 -421.5625 235.125 C-425.8746099 229.55673019 -430.1617843 223.98741069 -434.2421875 218.24609375 C-435.17744263 216.93741333 -435.17744263 216.93741333 -436.1315918 215.60229492 C-437.31364665 213.93987547 -438.48486588 212.26968488 -439.64379883 210.59106445 C-440.1777124 209.84429443 -440.71162598 209.09752441 -441.26171875 208.328125 C-441.72022217 207.67102539 -442.17872559 207.01392578 -442.65112305 206.33691406 C-445.8577825 203.27959514 -448.42033703 203.1400767 -451.78515625 205.8671875 Z M-340.93359375 205.3671875 C-341.51238281 206.13289062 -342.09117187 206.89859375 -342.6875 207.6875 C-343.38230469 208.60144531 -344.07710937 209.51539063 -344.79296875 210.45703125 C-345.61404304 211.57400664 -346.4328694 212.69263635 -347.25 213.8125 C-347.72646973 214.46138184 -348.20293945 215.11026367 -348.69384766 215.77880859 C-352.00736544 220.30124182 -355.27564087 224.85450659 -358.53027344 229.41943359 C-360.26402203 231.8320122 -362.02352518 234.22389468 -363.7890625 236.61328125 C-364.90127216 238.13785271 -366.01325977 239.66258619 -367.125 241.1875 C-367.65512695 241.89463135 -368.18525391 242.6017627 -368.73144531 243.33032227 C-369.20936523 243.99217529 -369.68728516 244.65402832 -370.1796875 245.3359375 C-370.60491699 245.91263184 -371.03014648 246.48932617 -371.46826172 247.08349609 C-372.43152014 248.81833152 -372.43152014 248.81833152 -372.00439453 250.90478516 C-371.31841468 253.00910656 -371.31841468 253.00910656 -369.25 254.8125 C-366.7697723 254.87312368 -366.7697723 254.87312368 -364.25 253.8125 C-362.21084337 251.57206993 -362.21084337 251.57206993 -360.5625 248.8125 C-357.41091954 243.89295977 -357.41091954 243.89295977 -355.25 242.8125 C-348.77941176 242.45955882 -348.77941176 242.45955882 -345.25 244.8125 C-344.19720083 248.781198 -344.2013874 252.58413362 -344.31591797 256.67114258 C-345.00662729 282.43574175 -338.48824829 306.58365308 -326.0390625 328.9921875 C-324.56567679 332.39118622 -324.89989518 335.13639942 -325.25 338.8125 C-326.6875 340.875 -326.6875 340.875 -329.25 341.8125 C-332.30192311 341.73895968 -335.24669125 341.34513809 -338.25 340.8125 C-338.49363281 340.16152344 -338.73726562 339.51054687 -338.98828125 338.83984375 C-339.97425612 336.47411458 -341.01837843 334.22685552 -342.16796875 331.94140625 C-348.1783459 319.90868703 -352.49602262 307.71759956 -356.25 294.8125 C-370.19843442 299.07567135 -380.2063719 307.55195524 -387.7109375 319.87109375 C-391.18125133 326.50344479 -393.15354089 333.43362656 -394.25 340.8125 C-394.43755859 341.90691406 -394.43755859 341.90691406 -394.62890625 343.0234375 C-395.20326204 349.79350359 -392.60806703 354.69616349 -389.52661133 360.50976562 C-382.6775736 373.43531412 -379.46672632 386.33723157 -376.25 400.8125 C-353.48 400.8125 -330.71 400.8125 -307.25 400.8125 C-308.751696 392.55333327 -308.751696 392.55333327 -311.59765625 385.27734375 C-312.03787109 384.36662109 -312.47808594 383.45589844 -312.93164062 382.51757812 C-313.38732422 381.60427734 -313.84300781 380.69097656 -314.3125 379.75 C-314.77205078 378.80189453 -315.23160156 377.85378906 -315.70507812 376.87695312 C-317.56211791 372.56773687 -317.56211791 372.56773687 -320.25 368.8125 C-320.41796875 366.81640625 -320.41796875 366.81640625 -320.4375 364.375 C-320.45167969 363.57191406 -320.46585937 362.76882813 -320.48046875 361.94140625 C-320.25 359.8125 -320.25 359.8125 -318.25 357.8125 C-315.09829016 356.98675202 -312.40342972 356.99335781 -309.25 357.8125 C-306.32476843 360.26524761 -304.90833131 363.41988328 -303.25 366.8125 C-302.93144043 367.45638672 -302.61288086 368.10027344 -302.28466797 368.76367188 C-290.63816936 392.61517538 -286.68077907 417.42464409 -295.02124023 443.04785156 C-298.79621959 453.69379828 -304.82008289 462.95527363 -312.18823242 471.46362305 C-314.27601347 473.97766447 -315.26817993 475.27164712 -315.15625 478.6015625 C-314.43144966 480.9757007 -314.43144966 480.9757007 -312.1875 482.125 C-311.2284375 482.4653125 -311.2284375 482.4653125 -310.25 482.8125 C-293.49449496 470.89679349 -284.70029713 447.27776009 -281.25 427.8125 C-280.72980083 424.46899765 -280.39229107 421.19191301 -280.25 417.8125 C-280.17265625 416.71035156 -280.17265625 416.71035156 -280.09375 415.5859375 C-278.92488088 386.46161533 -295.22951051 359.69718238 -310.45703125 336.1796875 C-328.5075226 308.21973081 -338.50540389 275.2913692 -333.25 241.8125 C-332.93405881 240.47493877 -332.605798 239.14001522 -332.25 237.8125 C-330.86135566 237.50693774 -329.46318736 237.24449192 -328.0625 237 C-327.28519531 236.84917969 -326.50789063 236.69835937 -325.70703125 236.54296875 C-320.27311421 237.13905822 -316.79054387 243.48275695 -313.5625 247.5 C-310.53629616 251.27339323 -310.53629616 251.27339323 -307.25 254.8125 C-304.64719432 254.49208603 -304.64719432 254.49208603 -302.25 253.8125 C-301.19120417 251.21158184 -301.19120417 251.21158184 -301.25 247.8125 C-302.87746082 244.77198861 -305.09055508 242.24944194 -307.3125 239.625 C-308.60798533 238.03329493 -309.90087291 236.43947271 -311.19140625 234.84375 C-311.86187988 234.02132812 -312.53235352 233.19890625 -313.22314453 232.3515625 C-317.13527694 227.45079437 -320.77829176 222.35012292 -324.45336914 217.27075195 C-327.04103456 213.71949986 -329.65984859 210.1921393 -332.40625 206.76171875 C-332.85806641 206.19155029 -333.30988281 205.62138184 -333.77539062 205.03393555 C-336.34368881 202.90658525 -338.56529596 203.18022109 -340.93359375 205.3671875 Z M-230.72265625 205.7734375 C-233.58229536 209.21207619 -236.16205481 212.74988789 -238.6875 216.4375 C-243.89901653 223.94055832 -249.26306855 231.31729597 -254.70483398 238.65478516 C-255.26887939 239.41581543 -255.8329248 240.1768457 -256.4140625 240.9609375 C-256.91373535 241.63302246 -257.4134082 242.30510742 -257.92822266 242.99755859 C-260.54104089 246.58523698 -261.48959728 248.37995027 -261.25 252.8125 C-259.6 253.4725 -257.95 254.1325 -256.25 254.8125 C-252.85704249 251.54460034 -252.85704249 251.54460034 -249.86328125 247.921875 C-246.27703157 243.08780694 -246.27703157 243.08780694 -243.1953125 242.26171875 C-240.29949918 242.16094869 -237.96415675 242.32156813 -235.53710938 243.98999023 C-233.7194644 246.56372311 -233.86505585 248.4640019 -233.84375 251.59765625 C-233.82401123 252.75950439 -233.80427246 253.92135254 -233.78393555 255.1184082 C-233.77273682 256.3580835 -233.76153809 257.59775879 -233.75 258.875 C-233.49562322 270.13565081 -232.69260802 280.8207639 -230.25 291.8125 C-229.98445313 293.06417969 -229.71890625 294.31585938 -229.4453125 295.60546875 C-224.84454952 314.92460179 -214.70295179 331.15515516 -204.25 347.8125 C-191.80858398 367.8347859 -179.77834764 388.74972795 -179.9375 413 C-179.94313965 413.91346191 -179.9487793 414.82692383 -179.95458984 415.76806641 C-180.3135617 436.02331972 -187.17750729 452.95506312 -199.609375 468.82421875 C-200.73085938 470.27248047 -200.73085938 470.27248047 -201.875 471.75 C-202.56851563 472.60464844 -203.26203125 473.45929688 -203.9765625 474.33984375 C-205.57657408 476.78140913 -205.57657408 476.78140913 -204.57421875 479.55859375 C-203.44007284 481.88928456 -203.44007284 481.88928456 -201.4375 482.9375 C-197.90307184 482.73553268 -196.59437939 480.35365797 -194.25 477.8125 C-183.80666859 465.23500431 -176.31413815 451.74228773 -172.25 435.8125 C-172.02441406 434.99265625 -171.79882812 434.1728125 -171.56640625 433.328125 C-164.28416856 401.78850245 -177.69767166 371.94347177 -193.98046875 345.734375 C-195.91965624 342.64978093 -197.86908257 339.57183639 -199.81958008 336.49438477 C-215.12320285 312.27102608 -223.42108362 288.77098713 -223.4375 259.8125 C-223.44974609 258.67554688 -223.46199219 257.53859375 -223.47460938 256.3671875 C-223.48535948 250.18946289 -223.32739413 244.66509209 -221.25 238.8125 C-218.00280737 236.64770491 -217.37205971 236.56115288 -213.6875 236.9375 C-212.90246094 237.00195312 -212.11742187 237.06640625 -211.30859375 237.1328125 C-209.25 237.8125 -209.25 237.8125 -208.24609375 239.48046875 C-207.75302734 240.63482422 -207.75302734 240.63482422 -207.25 241.8125 C-205.83118233 243.90238009 -204.36867311 245.96294747 -202.875 248 C-202.10414063 249.06605469 -201.33328125 250.13210938 -200.5390625 251.23046875 C-198.51154974 253.86767226 -198.51154974 253.86767226 -196.1015625 254.796875 C-193.98899477 255.01804773 -193.98899477 255.01804773 -192 252.875 C-191.13375 251.8540625 -191.13375 251.8540625 -190.25 250.8125 C-192.81510118 244.92333512 -196.63055412 240.16969074 -200.5625 235.125 C-204.8746099 229.55673019 -209.1617843 223.98741069 -213.2421875 218.24609375 C-214.17744263 216.93741333 -214.17744263 216.93741333 -215.1315918 215.60229492 C-216.31364665 213.93987547 -217.48486588 212.26968488 -218.64379883 210.59106445 C-219.1777124 209.84429443 -219.71162598 209.09752441 -220.26171875 208.328125 C-220.72022217 207.67102539 -221.17872559 207.01392578 -221.65112305 206.33691406 C-224.79334814 203.34102866 -227.38453596 203.12614463 -230.72265625 205.7734375 Z M-314.25 293.8125 C-310.36397106 305.1188702 -310.36397106 305.1188702 -305.25 315.375 C-304.68913696 316.34590576 -304.68913696 316.34590576 -304.11694336 317.33642578 C-300.79819543 323.02399258 -297.29569893 328.5998366 -293.8125 334.1875 C-280.38618265 355.72860307 -270.80164689 375.83008897 -265.25 400.8125 C-242.48 400.8125 -219.71 400.8125 -196.25 400.8125 C-198.92906536 391.43577124 -201.23127304 383.93978307 -205.75 375.625 C-206.27118408 374.64523193 -206.79236816 373.66546387 -207.3293457 372.65600586 C-211.66843882 364.61758692 -216.46778028 356.92273033 -221.421875 349.25390625 C-231.62128288 333.39777114 -238.22516703 317.88699892 -244.25 299.8125 C-267.35 297.8325 -290.45 295.8525 -314.25 293.8125 Z M-199.25 303.8125 C-198.49238519 308.0752027 -197.19285119 311.05332652 -195 314.8125 C-194.65501465 315.40643555 -194.3100293 316.00037109 -193.95458984 316.61230469 C-191.23350883 321.25325302 -188.39421278 325.81900735 -185.54663086 330.38305664 C-171.92094849 352.22355087 -158.21812227 374.69302401 -155.25 400.8125 C-150.96 400.8125 -146.67 400.8125 -142.25 400.8125 C-141.981875 398.8325 -141.71375 396.8525 -141.4375 394.8125 C-140.84327371 390.82946146 -140.21417451 387.29959697 -138.5625 383.625 C-134.58766356 373.9023303 -139.96839127 358.48427645 -141.59057617 348.35913086 C-143.21413155 338.19628908 -144.64707641 328.06084934 -145.60691833 317.81129456 C-145.90926124 314.64905181 -146.24145736 311.83812791 -147.25 308.8125 C-158.89454987 307.24851649 -170.53939767 306.12150351 -182.25 305.1875 C-183.91148402 305.05239888 -185.57294254 304.91698368 -187.234375 304.78125 C-191.23930004 304.45473051 -195.24454087 304.13239822 -199.25 303.8125 Z M-120.4609375 381.078125 C-125.23404061 388.37326075 -126.84676098 395.35699458 -126.640625 403.9765625 C-126.63659668 404.79213623 -126.63256836 405.60770996 -126.62841797 406.44799805 C-126.60776046 409.44473323 -126.55191878 412.44114339 -126.5 415.4375 C-126.4175 422.16125 -126.335 428.885 -126.25 435.8125 C-103.81 435.8125 -81.37 435.8125 -58.25 435.8125 C-58.1675 429.439375 -58.085 423.06625 -58 416.5 C-57.96358398 414.51186279 -57.92716797 412.52372559 -57.88964844 410.4753418 C-57.75418603 397.88580888 -58.86352221 387.80223692 -67.27734375 377.81640625 C-74.27740292 370.70545505 -82.51927236 367.48557276 -92.375 366.5 C-104.18684227 367.7838959 -112.42145964 372.25180462 -120.4609375 381.078125 Z M-375.25 416.8125 C-375.91 423.0825 -376.57 429.3525 -377.25 435.8125 C-354.81 435.8125 -332.37 435.8125 -309.25 435.8125 C-305.81897817 426.11581166 -305.81897817 426.11581166 -306.25 416.8125 C-329.02 416.8125 -351.79 416.8125 -375.25 416.8125 Z M-264.25 416.8125 C-267.09800125 422.5085025 -265.87603912 429.45516496 -266.25 435.8125 C-243.81 435.8125 -221.37 435.8125 -198.25 435.8125 C-195.02514049 424.06171948 -195.02514049 424.06171948 -195.25 416.8125 C-218.02 416.8125 -240.79 416.8125 -264.25 416.8125 Z M-154.25 416.8125 C-154.91 423.0825 -155.57 429.3525 -156.25 435.8125 C-151.63 435.8125 -147.01 435.8125 -142.25 435.8125 C-142.25 429.5425 -142.25 423.2725 -142.25 416.8125 C-146.21 416.8125 -150.17 416.8125 -154.25 416.8125 Z " fill="#FFFFFF" transform="translate(498.25,12.1875)"/>
<path d="M0 0 C2.96633325 1.65512797 4.99411056 3.59583921 7.15625 6.203125 C7.878125 7.0075 8.6 7.811875 9.34375 8.640625 C13.9833467 15.20005482 13.76162498 22.47513504 13.15625 30.203125 C11.73634273 37.04752174 8.34235505 42.09196725 2.5859375 45.90625 C-5.32970674 50.32909038 -12.48633603 51.98557751 -21.3515625 49.5 C-29.11264721 46.39556612 -34.60848465 41.72991692 -38.1171875 34.1328125 C-41.15324634 26.06930139 -40.32784863 17.9867496 -36.84375 10.203125 C-28.51163177 -2.62569196 -13.77372975 -6.18946084 0 0 Z M-21.84375 17.203125 C-23.95232453 19.86176245 -23.84398614 21.19013707 -23.78125 24.640625 C-22.67315237 28.85139601 -21.15738542 30.45523222 -17.84375 33.203125 C-14.94079195 34.65460403 -13.07113221 34.57551525 -9.84375 34.203125 C-6.91437346 32.39002358 -4.40727051 30.33016601 -2.84375 27.203125 C-2.31411865 22.64406456 -2.31411865 22.64406456 -3.890625 18.4453125 C-6.59770595 15.14904335 -8.33713411 13.37433135 -12.59375 12.890625 C-16.70142229 13.28559349 -18.67301614 14.6088882 -21.84375 17.203125 Z " fill="#FFFFFF" transform="translate(418.84375,389.796875)"/>
</svg>
