<svg xmlns="http://www.w3.org/2000/svg" width="24" height="24" viewBox="0 0 256 256" fill="#FFFFFF">
<path d="M112.5,47c-22,1.8-42.7,6.2-63.6,13.7c-8.2,2.9-34.5,15.5-37.5,17.8L10,79.7l27.9,48.2c15.3,26.5,29.1,50.5,30.7,53.2l2.9,5l5.1-2.9c4.9-2.8,13.8-6.8,15.1-6.8c0.9,0,3.9,9.8,5,16.7c0.5,3.2,1,8.1,1,10.9v5.2h5.9h5.9V203c0-8.5-2.4-21-5.6-29.5c-0.5-1.1,8.7-2.9,18-3.5l6.5-0.4l2.2,5.5c3.6,9.4,5.3,17.2,5.7,26l0.4,8.1h5.8h5.8v-6.5c0-9.2-2.4-20.9-6.4-31.3c-0.6-1.5,12.8,1.5,22.9,5.2l5.8,2.1l1.2,4.1c2,6.6,3.3,14.4,3.3,20.6v5.8h5.8c5.6,0,5.8-0.1,6.2-1.6c0.5-1.9-0.5-14.3-1.6-19.1l-0.7-3.3l29-50.2c15.9-27.5,29.6-51.3,30.5-52.8l1.6-2.7l-3.8-2.3c-5.2-3.1-19.7-10.4-26.7-13.3c-18.2-7.5-38.5-12.8-60.3-15.7C148.2,47.3,119.4,46.5,112.5,47z M145.3,63c17.7,1.6,35.5,5.3,52.4,11.1c12.1,4.2,26.4,10.6,26.1,11.7c-0.4,1.8-45,78.7-45.6,78.5c-0.9-0.3-6.2-14-8-20.5c-2-7.7-3-17.4-2.5-25l0.5-6.1l4.7-0.2l4.7-0.2L170,98.3c-4.2-7.9-7.8-14.3-8.1-14.3c-0.2,0-3.8,6.4-8,14.2l-7.5,14.3l4.7,0.2l4.7,0.2v10.9c0.1,12,0.9,17.5,4.3,28c1.1,3.2,2.1,6.2,2.3,6.6c0.2,0.5-1.2,0.3-4.1-0.5c-4-1.1-12.6-2.6-20.7-3.5l-3.1-0.4l-1.7-5.4c-3.4-10.8-4.7-20.7-3.9-30.2l0.5-5.6h4.8h4.8L131.1,98l-7.9-14.8l-7.8,14.6c-4.3,8-7.8,14.6-7.8,14.8c0,0.1,2.2,0.3,4.8,0.3h4.7l-0.2,8.1c-0.3,9.4,1,19.7,3.5,27.6c0.9,2.8,1.5,5.2,1.4,5.4c-0.1,0.1-3,0.5-6.4,0.9c-3.4,0.4-8.8,1.2-11.9,1.9l-5.8,1.1l-0.9-1.6c-1.3-2.6-4.7-13.7-5.5-17.9c-1.1-6.1-1.6-15-1-20.4l0.5-5h4.5c2.5,0,4.5-0.2,4.5-0.5c0-0.5-15.3-29.1-15.4-28.9c-0.4,0.5-15.4,28.8-15.4,29c0,0.1,2,0.3,4.6,0.5l4.6,0.2l0.2,11.5c0.3,12.8,1.2,18,4.9,28.5c1.2,3.6,2.4,7,2.6,7.5c0.2,0.7-0.9,1.5-3.9,2.7l-4.3,1.8l-22.6-39.2c-12.5-21.6-22.7-39.6-22.8-40.1c-0.3-1.1,14-7.5,25.8-11.6c16.6-5.8,35.3-9.8,51.7-11.2C118.7,62.3,136.3,62.3,145.3,63z"/>
</svg>