<svg class="svg-icon" style="width: 1em;height: 1em;vertical-align: middle;fill: currentColor;overflow: hidden;" viewBox="0 0 1024 1024" version="1.1" xmlns="http://www.w3.org/2000/svg"><path d="M164.5312 625.937067h-52.053333c-69.0432 0-119.534933 48.571733-99.1232 134.6816 16.725333 70.570667 20.795733 86.997333 26.8032 107.050666 2.065067 6.894933 4.1472 13.303467 6.417066 19.746134 2.261333 6.417067 4.727467 12.9536 7.68 20.369066 24.721067 61.994667 55.6032 101.828267 101.034667 101.828267h550.485333c75.178667 0 115.8144-34.048 135.765334-115.746133 12.416-50.781867 66.875733-285.064533 163.473066-703.1808 14.4896-74.4448-6.007467-124.458667-61.841066-144.068267-72.106667-25.309867-117.691733 17.783467-134.8352 92.544-7.415467 32.3072-48.580267 194.816-123.306667 486.775467H164.522667z m-9.2416 349.5424c-25.634133 0-49.6384-30.958933-69.316267-80.3328a492.612267 492.612267 0 0 1-7.1936-19.063467 399.505067 399.505067 0 0 1-5.922133-18.210133c-5.7344-19.1232-9.762133-35.4304-26.282667-105.130667-14.7456-62.190933 16.938667-92.672 65.902934-92.672h599.048533l3.285333-12.834133c76.970667-300.663467 119.168-467.2256 126.788267-500.445867 13.2096-57.6 42.077867-84.881067 90.257067-67.959467 37.7856 13.2608 51.2 45.994667 39.773866 104.7552-96.401067 417.245867-150.8864 651.605333-163.242666 702.1824-16.324267 66.824533-43.630933 89.710933-102.613334 89.710934h-550.485333z" fill="#666666" /><path d="M236.834133 489.1136l-53.597866 41.173333-22.340267-200.430933 190.72 71.099733-47.0784 36.155734c21.2736 28.757333 32.128 63.675733 32.128 103.4496 0 43.1616-17.792 70.8352-62.728533 119.893333-13.0816 14.276267-14.8224 16.187733-19.584 21.76-14.890667 17.3824-20.736 28.177067-20.736 34.4576 0 27.588267 13.960533 56.763733 44.407466 88.234667a42.666667 42.666667 0 1 1-61.320533 59.332266c-44.7744-46.267733-68.420267-95.684267-68.420267-147.566933 0-32.162133 14.173867-58.350933 41.258667-89.966933 5.666133-6.621867 7.552-8.704 21.469867-23.893334 30.190933-32.955733 40.32-48.7168 40.32-62.250666 0-20.8384-4.693333-37.589333-14.498134-51.447467z" fill="#FFFFFF" /><path d="M236.168533 457.344l-32.520533 24.9856-12.6976-113.954133 108.416 40.430933-28.757333 22.0928c29.661867 28.0832 44.7232 65.083733 44.7232 109.653333 0 35.7632-15.872 60.458667-57.130667 105.489067-13.2864 14.506667-15.061333 16.469333-20.053333 22.289067-17.937067 20.949333-25.864533 35.592533-25.864534 48.341333 0 33.664 16.384 67.899733 50.4064 103.0656a21.333333 21.333333 0 0 1-30.660266 29.6704c-41.1904-42.564267-62.4128-86.929067-62.4128-132.736 0-25.685333 12.091733-48.0256 36.1216-76.091733 5.444267-6.357333 7.296-8.3968 21.009066-23.364267 33.877333-36.974933 45.917867-55.714133 45.917867-76.654933 0-35.490133-11.9808-62.677333-36.497067-83.217067z" fill="#1E1E1E" /><path d="M407.5008 489.1136l-53.597867 41.173333-22.340266-200.430933 190.72 71.099733-47.0784 36.155734c21.2736 28.757333 32.128 63.675733 32.128 103.4496 0 43.1616-17.792 70.8352-62.728534 119.893333-13.0816 14.276267-14.8224 16.187733-19.584 21.76-14.890667 17.3824-20.736 28.177067-20.736 34.4576 0 27.588267 13.960533 56.763733 44.407467 88.234667a42.666667 42.666667 0 1 1-61.320533 59.332266c-44.7744-46.267733-68.420267-95.684267-68.420267-147.566933 0-32.162133 14.173867-58.350933 41.258667-89.966933 5.666133-6.621867 7.552-8.704 21.469866-23.893334 30.190933-32.955733 40.32-48.7168 40.32-62.250666 0-20.8384-4.693333-37.589333-14.498133-51.447467z" fill="#FFFFFF" /><path d="M406.8352 457.344l-32.520533 24.9856-12.6976-113.954133 108.416 40.430933-28.757334 22.0928c29.661867 28.0832 44.7232 65.083733 44.7232 109.653333 0 35.7632-15.872 60.458667-57.130666 105.489067-13.2864 14.506667-15.061333 16.469333-20.053334 22.289067-17.937067 20.949333-25.864533 35.592533-25.864533 48.341333 0 33.664 16.384 67.899733 50.4064 103.0656a21.333333 21.333333 0 0 1-30.660267 29.6704c-41.1904-42.564267-62.4128-86.929067-62.4128-132.736 0-25.685333 12.091733-48.0256 36.1216-76.091733 5.444267-6.357333 7.296-8.3968 21.009067-23.364267 33.877333-36.974933 45.917867-55.714133 45.917867-76.654933 0-35.490133-11.9808-62.677333-36.497067-83.217067z" fill="#1E1E1E" /><path d="M578.167467 489.1136l-53.597867 41.173333-22.340267-200.430933 190.72 71.099733-47.0784 36.155734c21.2736 28.757333 32.128 63.675733 32.128 103.4496 0 43.1616-17.792 70.8352-62.728533 119.893333-13.0816 14.276267-14.8224 16.187733-19.584 21.76-14.890667 17.3824-20.736 28.177067-20.736 34.4576 0 27.588267 13.960533 56.763733 44.407467 88.234667a42.666667 42.666667 0 1 1-61.320534 59.332266c-44.7744-46.267733-68.420267-95.684267-68.420266-147.566933 0-32.162133 14.173867-58.350933 41.258666-89.966933 5.666133-6.621867 7.552-8.704 21.469867-23.893334 30.190933-32.955733 40.32-48.7168 40.32-62.250666 0-20.8384-4.693333-37.589333-14.498133-51.447467z" fill="#FFFFFF" /><path d="M577.501867 457.344l-32.520534 24.9856-12.6976-113.954133 108.416 40.430933-28.757333 22.0928c29.661867 28.0832 44.7232 65.083733 44.7232 109.653333 0 35.7632-15.872 60.458667-57.130667 105.489067-13.2864 14.506667-15.061333 16.469333-20.053333 22.289067-17.937067 20.949333-25.864533 35.592533-25.864533 48.341333 0 33.664 16.384 67.899733 50.4064 103.0656a21.333333 21.333333 0 0 1-30.660267 29.6704c-41.1904-42.564267-62.4128-86.929067-62.4128-132.736 0-25.685333 12.091733-48.0256 36.1216-76.091733 5.444267-6.357333 7.296-8.3968 21.009067-23.364267 33.877333-36.974933 45.917867-55.714133 45.917866-76.654933 0-35.490133-11.9808-62.677333-36.497066-83.217067z" fill="#1E1E1E" /></svg>