<svg xmlns="http://www.w3.org/2000/svg" width="24" height="24" viewBox="0 0 256 256" fill="#FFFFFF">
<path d="M180.5,210c-7.2,0-13.1-4.8-13.1-10.7V85.3c0-5.9,5.9-10.7,13.1-10.7s13.1,4.8,13.1,10.7v114C193.6,205.2,187.7,210,180.5,210L180.5,210z M128,210c-7.2,0-13.1-4.8-13.1-10.7v-85.4c0-5.9,5.9-10.7,13.1-10.7c7.2,0,13.1,4.8,13.1,10.7v85.5C141.1,205.2,135.3,210,128,210L128,210z M75.6,210c-7.2,0-13.1-4.8-13.1-10.7v-57c0-5.9,5.9-10.7,13.1-10.7c7.2,0,13.1,4.8,13.1,10.7v57C88.7,205.2,82.8,210,75.6,210L75.6,210z M23.1,210c-7.2,0-13.1-4.8-13.1-10.7v-28.5c0-5.9,5.9-10.7,13.1-10.7s13.1,4.8,13.1,10.7v28.5C36.2,205.2,30.3,210,23.1,210L23.1,210z"/>
<path d="M232.9,210c-7.2,0-13.1-4.8-13.1-10.7V56.7c0-5.9,5.9-10.7,13.1-10.7S246,50.8,246,56.7v142.6C246,205.2,240.1,210,232.9,210L232.9,210z"/>
</svg>