<?xml version="1.0" encoding="UTF-8"?>
<svg version="1.1" xmlns="http://www.w3.org/2000/svg" width="512" height="512">
<path d="M0 0 C8.73638189 7.01883233 14.27676257 17.38926417 15.87890625 28.47265625 C16.18890727 32.26641009 16.28718776 36.04210293 16.31640625 39.84765625 C16.32655762 40.76764404 16.33670898 41.68763184 16.34716797 42.63549805 C16.15473479 58.16702386 11.1523742 72.7994998 6.56640625 87.47265625 C5.90599365 89.60550764 5.24626838 91.73857194 4.5871582 93.87182617 C3.13923541 98.5531057 1.68658731 103.23288447 0.23046875 107.91162109 C-2.00288631 115.0886055 -4.22665439 122.26853014 -6.44812202 129.44920158 C-10.33518016 142.01333223 -14.22845514 154.57552737 -18.125 167.13671875 C-24.10949319 186.42946875 -30.08301441 205.72560842 -36.05474472 225.02231216 C-37.4189758 229.43051106 -38.78334744 233.83866645 -40.14770508 238.24682617 C-44.60472151 252.64733961 -49.06139435 267.04795935 -53.51757812 281.44873047 C-53.79840461 282.35624967 -54.07923109 283.26376886 -54.36856747 284.19878864 C-55.78209408 288.76674462 -57.19558755 293.33471084 -58.60902405 297.9026947 C-61.36688727 306.81533022 -64.12567456 315.72767803 -66.88647461 324.6394043 C-67.94780081 328.06557792 -69.00907012 331.49176916 -70.0703125 334.91796875 C-70.32834593 335.7509656 -70.58637936 336.58396244 -70.85223198 337.44220161 C-74.00186187 347.61112264 -77.14245189 357.78275607 -80.26968384 367.95858765 C-81.73980722 372.74214786 -83.21360064 377.52457447 -84.68847084 382.30667305 C-85.64255267 385.40116281 -86.59381989 388.49647316 -87.54101562 391.59307861 C-101.4459159 437.04791058 -101.4459159 437.04791058 -115.09375 445.26171875 C-124.95897715 450.32019488 -133.64040482 452.300325 -144.55859375 449.09765625 C-146.81445562 448.36180674 -148.81029267 447.66000421 -150.84350586 446.43440247 C-153.90426791 445.14194902 -156.43384058 445.22823921 -159.75390625 445.2331543 C-160.41130798 445.23114014 -161.06870972 445.22912598 -161.74603271 445.22705078 C-163.16904276 445.22351369 -164.59206856 445.22426199 -166.01507568 445.22882652 C-168.26820961 445.23443 -170.52083075 445.22524548 -172.77392578 445.21162415 C-179.17808373 445.17453263 -185.58206571 445.15597142 -191.98632812 445.16723633 C-195.90749679 445.17308747 -199.82794139 445.1548308 -203.7489624 445.12134743 C-205.24165829 445.11339454 -206.73443311 445.11466907 -208.22711182 445.12537193 C-210.31496967 445.13970154 -212.40054925 445.12343292 -214.48828125 445.1003418 C-215.67534668 445.09971237 -216.86241211 445.09908295 -218.08544922 445.09843445 C-221.12109375 444.47265625 -221.12109375 444.47265625 -223.50439453 442.12483215 C-225.48150007 438.88141395 -225.75689819 437.20800735 -225.12109375 433.47265625 C-222.88902944 430.62485006 -221.57116376 429.62267959 -218.12109375 428.47265625 C-216.32638988 428.38452192 -214.52855136 428.35501905 -212.73168945 428.35913086 C-211.63077469 428.35920639 -210.52985992 428.35928192 -209.39558411 428.35935974 C-208.2080101 428.36452103 -207.0204361 428.36968231 -205.796875 428.375 C-203.97206856 428.37712242 -203.97206856 428.37712242 -202.11039734 428.37928772 C-198.21810465 428.38489313 -194.32586911 428.39744658 -190.43359375 428.41015625 C-187.79752687 428.41517055 -185.16145909 428.41973358 -182.52539062 428.42382812 C-176.05727211 428.43486432 -169.58918701 428.45160775 -163.12109375 428.47265625 C-163.35067276 427.74591705 -163.58025177 427.01917786 -163.81678772 426.27041626 C-164.87315409 422.91511883 -165.92098597 419.55721192 -166.96875 416.19921875 C-167.32988892 415.05654541 -167.69102783 413.91387207 -168.06311035 412.73657227 C-171.26180777 402.44891907 -173.49811498 392.11553561 -175.12109375 381.47265625 C-175.31703125 380.25835937 -175.51296875 379.0440625 -175.71484375 377.79296875 C-176.46053857 371.55525876 -176.22501369 365.24299804 -176.18359375 358.97265625 C-176.17908203 357.67328125 -176.17457031 356.37390625 -176.16992188 355.03515625 C-176.15820294 351.84760548 -176.1409144 348.66016377 -176.12109375 345.47265625 C-176.85679024 345.48102461 -177.59248672 345.48939298 -178.35047704 345.49801493 C-185.39617049 345.54332032 -192.35064244 345.28633348 -199.37419128 344.75134277 C-200.4398179 344.67375528 -201.50544452 344.59616778 -202.60336286 344.51622915 C-206.13848105 344.25779869 -209.67310565 343.99315978 -213.20776367 343.72851562 C-215.75644647 343.54094033 -218.30515843 343.35376107 -220.85389709 343.16694641 C-226.32469052 342.76513457 -231.79528024 342.36070418 -237.26570702 341.95393372 C-245.1845781 341.36516483 -253.10384857 340.78191612 -261.02323285 340.20009559 C-273.88771122 339.25488197 -286.75193499 338.30625126 -299.6159668 337.35498047 C-300.38437983 337.29815879 -301.15279285 337.24133711 -301.94449113 337.18279356 C-305.0580416 336.95254993 -308.17159123 336.72229495 -311.28513984 336.49202612 C-319.86250533 335.85768736 -328.43990822 335.22385527 -337.01733398 334.59033203 C-337.78571152 334.53357912 -338.55408906 334.4768262 -339.34575077 334.4183535 C-352.16825585 333.47136431 -364.99095212 332.52698572 -377.81377298 331.5842824 C-385.71168473 331.00350538 -393.60940825 330.42027605 -401.50690208 329.83384287 C-407.557168 329.3847275 -413.60767226 328.9389107 -419.65826988 328.49428368 C-422.13631143 328.31161573 -424.61426972 328.12781413 -427.09213638 327.94278908 C-430.47752429 327.6901486 -433.86318755 327.44157181 -437.24894714 327.19396973 C-438.22619269 327.12004171 -439.20343824 327.04611369 -440.21029729 326.96994543 C-452.11785152 326.10976853 -464.84612797 325.29912023 -475.12109375 332.47265625 C-478.16578088 335.74569491 -479.37315286 338.32945362 -479.62109375 342.72265625 C-478.79593322 357.30858201 -467.23383533 369.71556445 -457.52514648 379.74169922 C-454.12109375 383.280633 -454.12109375 383.280633 -454.12109375 385.47265625 C-453.23272827 385.86988892 -453.23272827 385.86988892 -452.32641602 386.27514648 C-450.04816012 387.51225987 -448.6229684 388.76863202 -446.8359375 390.6328125 C-446.22830566 391.25728271 -445.62067383 391.88175293 -444.99462891 392.52514648 C-444.3557373 393.18844971 -443.7168457 393.85175293 -443.05859375 394.53515625 C-437.8018226 399.89833719 -432.50027998 404.84333875 -426.6015625 409.49609375 C-424.17219974 411.43193242 -421.86250556 413.45238781 -419.55859375 415.53515625 C-418.86950267 416.14024961 -418.18041159 416.74534298 -417.47043896 417.36877251 C-415.95274578 418.72789588 -414.47021423 420.1278237 -413.03435993 421.57313728 C-405.8087463 428.29586154 -399.45799541 428.59962605 -389.9284668 428.44091797 C-388.41786845 428.44525762 -386.9072768 428.45314399 -385.39671326 428.46427917 C-381.32212003 428.48464694 -377.2491558 428.45653214 -373.17473197 428.41987371 C-368.90092579 428.39040005 -364.6273206 428.40798339 -360.35346985 428.42092896 C-352.2669768 428.43870706 -344.18110478 428.41769853 -336.09469301 428.38110745 C-324.22007507 428.32878341 -312.34542342 428.327299 -300.47070789 428.33514595 C-299.59909336 428.33571523 -298.72747883 428.3362845 -297.82945174 428.33687103 C-296.09160372 428.33805371 -294.35375579 428.3393651 -292.61590797 428.34080899 C-287.5325462 428.34361149 -282.44945854 428.33239618 -277.36615121 428.30904841 C-274.20727715 428.29586041 -271.04841829 428.29036464 -267.88952065 428.28638649 C-266.42578435 428.28268248 -264.96205206 428.27548857 -263.49835205 428.2645359 C-261.49945082 428.24991171 -259.50046525 428.24863363 -257.50151062 428.24801636 C-256.38345881 428.24315657 -255.26540701 428.23829678 -254.11347485 428.23328972 C-251.03506578 428.4795378 -248.87469578 429.09856453 -246.12109375 430.47265625 C-243.95390169 433.13239195 -244.12574512 434.56103221 -244.30859375 438.03515625 C-245.36960722 442.5240594 -245.36960722 442.5240594 -248.12109375 444.47265625 C-250.99955559 444.87252617 -250.99955559 444.87252617 -254.58248901 444.90744019 C-255.24149897 444.91776468 -255.90050892 444.92808918 -256.57948887 444.93872654 C-258.79249874 444.96947584 -261.00506455 444.97868039 -263.21826172 444.98779297 C-264.80351504 445.00495255 -266.38875618 445.02327103 -267.97398376 445.04266357 C-272.28649332 445.09061361 -276.59888938 445.11816078 -280.91160727 445.13908529 C-283.609487 445.15232513 -286.30733354 445.16858192 -289.0051918 445.18561172 C-297.45579577 445.23741055 -305.90631751 445.27552254 -314.35705554 445.29603755 C-324.09321392 445.32001654 -333.82759913 445.39004488 -343.56315696 445.50003994 C-351.09798635 445.58221932 -358.63231288 445.6216998 -366.16758263 445.6296407 C-370.66294548 445.63536972 -375.15648159 445.65888328 -379.65136337 445.72738266 C-383.88919162 445.79086023 -388.12396769 445.80087664 -392.36213875 445.77172089 C-393.90805922 445.76997252 -395.45414153 445.78667083 -396.99960518 445.82429123 C-406.67222618 446.04618544 -412.79200752 444.35931274 -419.83429706 437.72618854 C-421.26876415 436.31394445 -422.69502346 434.89337886 -424.12109375 433.47265625 C-425.9986264 431.90875367 -427.89165203 430.36299601 -429.80859375 428.84765625 C-435.07316887 424.55687537 -440.11087882 420.0558209 -445.12109375 415.47265625 C-446.43787109 414.29509766 -446.43787109 414.29509766 -447.78125 413.09375 C-494.20406317 371.26851943 -494.20406317 371.26851943 -496.4921875 347.640625 C-496.66142116 337.49656061 -495.43513578 330.43380459 -488.62109375 322.59765625 C-487.79609375 321.89640625 -486.97109375 321.19515625 -486.12109375 320.47265625 C-485.41984375 319.81265625 -484.71859375 319.15265625 -483.99609375 318.47265625 C-470.89476084 309.35868553 -457.69419881 309.20366324 -442.3918457 310.10522461 C-440.58720808 310.20302736 -438.78254416 310.30034584 -436.97785664 310.39722347 C-414.13681382 311.65726967 -391.32337949 313.37849971 -368.51157165 315.07530713 C-362.15685065 315.54690457 -355.8017044 316.01270612 -349.4466095 316.47923279 C-338.8195491 317.26013291 -328.19275579 318.04456818 -317.56616211 318.83178711 C-306.67606016 319.63851815 -295.7857773 320.44274145 -284.89526367 321.24389648 C-284.2198372 321.29358456 -283.54441073 321.34327263 -282.84851678 321.39446641 C-280.13178256 321.59431594 -277.41504738 321.7941525 -274.69831086 321.9939709 C-253.93641087 323.52108605 -233.17466235 325.05030315 -212.4134922 326.58731079 C-210.25929773 326.74672532 -208.10508968 326.90595643 -205.9508667 327.06498528 C-185.11087952 328.60380448 -185.11087952 328.60380448 -175.12109375 329.47265625 C-175.07355957 328.48112549 -175.02602539 327.48959473 -174.97705078 326.46801758 C-174.38671307 314.98177991 -173.30431642 303.58525852 -171.99609375 292.16015625 C-171.88849731 291.21679413 -171.78090088 290.27343201 -171.67004395 289.30148315 C-164.74542019 229.1699917 -154.08077457 167.75769481 -134.12109375 110.47265625 C-133.34487783 108.17974648 -132.56884479 105.8867748 -131.79296875 103.59375 C-126.47608536 88.09638738 -120.34435286 73.17763383 -113.12109375 58.47265625 C-112.73066895 57.67263184 -112.34024414 56.87260742 -111.93798828 56.04833984 C-101.94036545 35.77116555 -88.67823768 15.81835857 -70.12109375 2.47265625 C-68.95900391 1.62960938 -68.95900391 1.62960938 -67.7734375 0.76953125 C-47.87537983 -12.38511122 -19.59697509 -14.11126567 0 0 Z M-71.12109375 25.47265625 C-71.98734375 26.27703125 -72.85359375 27.08140625 -73.74609375 27.91015625 C-129.99292392 88.59752564 -144.47897595 199.46094594 -155.49609375 288.03515625 C-155.61760803 289.05121948 -155.73912231 290.06728271 -155.86431885 291.11413574 C-158.29643354 311.65933575 -160.55393628 332.20001727 -160.49609375 352.91015625 C-160.49521759 353.69804535 -160.49434143 354.48593445 -160.49343872 355.29769897 C-160.4121728 377.68463186 -156.13144431 398.2320337 -149.12109375 419.47265625 C-148.88745117 420.18566895 -148.65380859 420.89868164 -148.41308594 421.63330078 C-146.09339894 428.50354788 -146.09339894 428.50354788 -141.30859375 433.72265625 C-134.76309487 435.26277363 -129.86186125 435.1547008 -123.99609375 431.84375 C-113.3741897 424.07648266 -109.39457998 408.08484326 -105.7578125 396.13671875 C-105.36913498 394.8858548 -104.98045746 393.63499084 -104.58000183 392.34622192 C-103.53116965 388.97021794 -102.49327286 385.59094628 -101.45748138 382.21092224 C-100.35147858 378.60894558 -99.23496867 375.01022689 -98.11962891 371.41113281 C-96.07812997 364.81843293 -94.0450372 358.2231782 -92.01570511 351.62672424 C-89.99992673 345.07558945 -87.97386245 338.52765972 -85.9453125 331.98046875 C-83.24632823 323.26585345 -80.55290465 314.54953998 -77.86328125 305.83203125 C-72.53093987 288.55114811 -67.18105152 271.27569858 -61.83233643 253.99987793 C-59.00117703 244.85548906 -56.17042972 235.71097263 -53.33984375 226.56640625 C-53.06633717 225.68281181 -52.79283058 224.79921738 -52.51103592 223.88884735 C-49.20206992 213.19862113 -45.89427888 202.50803402 -42.58984375 191.81640625 C-42.25240646 190.72470123 -41.91496918 189.63299622 -41.56730652 188.50820923 C-39.94379837 183.25503451 -38.32131951 178.00154482 -36.70043945 172.74755859 C-33.17813483 161.33495811 -29.642064 149.92678743 -26.08806801 138.52402115 C-23.71628491 130.91426451 -21.34829328 123.30333382 -18.98232079 115.69176865 C-17.2262453 110.04349826 -15.46513334 104.39683149 -13.70022869 98.75131416 C-12.59200382 95.20188768 -11.48878914 91.65091754 -10.38681984 88.09954453 C-9.87390309 86.45004464 -9.35899428 84.80116251 -8.84183311 83.15298843 C-6.24982142 74.88855142 -3.81380134 66.62369923 -1.81176758 58.19433594 C-1.64641353 57.50048105 -1.48105947 56.80662617 -1.31069469 56.09174538 C-0.07946616 50.72467037 0.5115348 45.59366805 0.37890625 40.09765625 C0.36077881 38.83852417 0.36077881 38.83852417 0.34228516 37.55395508 C0.05620598 28.59620919 -1.99385225 20.64085131 -8.27734375 13.97265625 C-28.85430429 -2.76792181 -54.66531425 9.4442996 -71.12109375 25.47265625 Z " fill="#FFFFFF" transform="translate(496.12109375,35.52734375)"/>
<path d="M0 0 C9.30387667 8.35579141 14.6422289 17.98677184 15.71484375 30.48046875 C16.07789557 42.86779701 12.35504875 54.40402344 4 63.77734375 C-5.19447509 72.44313652 -14.29302312 75.00144272 -26.5 76.1875 C-38.23451963 77.33730436 -48.32473564 80.21080981 -56.38671875 89.30859375 C-59.71635413 93.30307029 -59.71635413 93.30307029 -60.5625 98.25 C-58.59116014 99.62535339 -56.58568078 100.95211044 -54.5625 102.25 C-53.7375 103.178125 -52.9125 104.10625 -52.0625 105.0625 C-51.2375 105.784375 -50.4125 106.50625 -49.5625 107.25 C-44.29789394 106.82465835 -39.1480354 105.13408817 -34.0625 103.75 C-32.40697035 103.29942817 -30.75073262 102.85144883 -29.09375 102.40625 C-28.36736328 102.20837891 -27.64097656 102.01050781 -26.89257812 101.80664062 C-5.75695999 96.75747787 19.10682311 98.8541619 38.31640625 109.26953125 C50.63871738 117.08856973 60.28283844 128.66566902 64.15234375 142.875 C64.56986052 146.35239991 63.23011771 148.32869706 61.4375 151.25 C58.34576248 152.79586876 55.84320448 152.54359521 52.4375 152.25 C49.03033676 149.4893573 47.49438633 146.59570522 45.75 142.625 C39.65747068 130.16646124 31.47531022 123.96300153 18.66015625 119.22265625 C-2.60633591 113.02825518 -26.51131863 117.03547934 -46.23046875 126.17578125 C-50.23727491 127.46754174 -52.5269408 127.42329271 -56.5625 126.25 C-58.8203125 124.10546875 -58.8203125 124.10546875 -60.6875 121.4375 C-64.67309465 115.83947598 -68.42106896 112.56422682 -74.8125 110 C-79.35989674 107.74329489 -79.35989674 107.74329489 -81 103.75 C-80.97873853 92.50268035 -73.93572068 82.96642041 -66.60546875 75.16796875 C-54.94996381 63.85845282 -41.44578553 60.68462742 -25.90625 58.80859375 C-18.94266551 57.92217416 -14.94703204 56.79693817 -9.5625 52.25 C-8.9025 52.25 -8.2425 52.25 -7.5625 52.25 C-3.14302204 43.53048943 0.73148747 35.50694114 -2.375 25.6796875 C-6.71838673 15.81658013 -14.30643177 10.25286277 -24.05859375 6.2109375 C-24.88488281 5.89382812 -25.71117187 5.57671875 -26.5625 5.25 C-27.635 4.8375 -28.7075 4.425 -29.8125 4 C-46.08938082 -0.43914931 -64.08200933 1.66068486 -78.83984375 9.59375 C-88.90131259 15.71435658 -94.97614431 24.2357887 -97.97265625 35.63671875 C-102.98236991 57.83207265 -100.7692793 79.83644139 -90.5625 100.25 C-89.86316225 107.35993377 -89.86316225 107.35993377 -92.625 110.875 C-94.12821276 112.09036351 -95.63630006 113.30293971 -97.20703125 114.4296875 C-102.57449976 118.52495692 -105.14657964 123.57473795 -108.08203125 129.51953125 C-109.5625 132.25 -109.5625 132.25 -111.5625 133.25 C-120.83735259 134.28053918 -129.01640907 130.41249257 -136.375 124.9375 C-137.79539793 123.73680391 -139.19279527 122.50821713 -140.5625 121.25 C-141.16578125 120.70085937 -141.7690625 120.15171875 -142.390625 119.5859375 C-152.45794055 109.2918806 -157.20436383 95.28432101 -157.9375 81.25 C-158.41275009 73.65419261 -160.01226275 68.2700178 -164.9375 62.4375 C-171.56317398 56.91610502 -177.3358041 53.75917464 -186.0625 54.375 C-195.83152604 55.82351076 -201.7963316 61.54693334 -207.5625 69.25 C-209.01750101 72.07296537 -209.01750101 72.07296537 -210.1875 75.0625 C-210.59226563 76.03832031 -210.99703125 77.01414062 -211.4140625 78.01953125 C-214.19027135 85.82879899 -214.95046247 92.68299746 -214.9375 100.9375 C-214.93588867 102.00097656 -214.93427734 103.06445312 -214.93261719 104.16015625 C-214.80716285 112.20891294 -213.84061953 118.82870162 -210.5625 126.25 C-210.27375 126.98734375 -209.985 127.7246875 -209.6875 128.484375 C-205.35565488 138.46308964 -197.48244619 145.18566339 -187.5625 149.25 C-164.1052883 157.85544566 -140.00007491 153.38920734 -117.5625 144.25 C-116.9025 143.92 -116.2425 143.59 -115.5625 143.25 C-112.75 142.875 -112.75 142.875 -109.5625 143.25 C-107.05172356 145.31012426 -105.10688177 147.52918425 -103.15234375 150.1171875 C-99.45772397 154.7831201 -96.08787102 157.16207603 -90.6875 159.75 C-84.92810595 162.69265933 -84.92810595 162.69265933 -83.36328125 165.078125 C-81.91147282 172.75865994 -86.63077309 181.18416556 -90.6875 187.375 C-99.56355518 199.24743049 -111.92385513 207.4185779 -126.5625 210.25 C-130.3548672 210.70605554 -134.1561203 211.08451152 -137.96728516 211.34082031 C-144.75145971 211.90877006 -149.91456649 214.15628513 -155.25 218.375 C-160.44961226 224.83938281 -163.44435867 231.09108236 -163.0625 239.50390625 C-162.19696722 244.25757458 -159.98834559 248.1260625 -157.5625 252.25 C-157.26085937 252.96285156 -156.95921875 253.67570312 -156.6484375 254.41015625 C-155.24686291 256.78476644 -154.0900662 257.17730438 -151.5625 258.25 C-150.58539063 258.78496094 -149.60828125 259.31992187 -148.6015625 259.87109375 C-131.73500029 268.84472239 -113.70712434 271.01135117 -95.33203125 265.57421875 C-83.79246786 261.52042394 -75.63692506 255.2382468 -69.8125 244.5 C-61.088042 225.84573125 -61.44246647 202.94673859 -68.0625 183.68359375 C-69.71446033 179.13895607 -71.39833017 174.57833966 -73.5625 170.25 C-74.26183775 163.14006623 -74.26183775 163.14006623 -71.5 159.625 C-69.99678724 158.40963649 -68.48869994 157.19706029 -66.91796875 156.0703125 C-61.55050024 151.97504308 -58.97842036 146.92526205 -56.04296875 140.98046875 C-54.5625 138.25 -54.5625 138.25 -52.5625 137.25 C-41.26207002 136.24103304 -32.32979377 141.90815747 -23.7265625 148.69921875 C-13.86759541 157.55444484 -7.10290406 172.30656533 -6.38671875 185.484375 C-6.34160156 186.64453125 -6.29648438 187.8046875 -6.25 189 C-5.84518521 195.22892432 -4.5679569 199.82883623 -1.5625 205.25 C-1.12744141 206.29800781 -1.12744141 206.29800781 -0.68359375 207.3671875 C0.72062905 209.72549896 1.93296423 210.20644343 4.4375 211.25 C5.05109375 211.59160156 5.6646875 211.93320313 6.296875 212.28515625 C13.26961803 216.07406414 19.38945243 217.12509178 27.140625 215.09375 C36.32448181 211.72008831 41.35280405 205.54927382 45.55078125 196.9765625 C48.25727389 190.68579582 49.79569552 184.12899018 51.3125 177.47265625 C52.51648452 174.02374225 53.20548897 172.86901484 56.4375 171.25 C59.83838303 171.36932923 62.36847259 171.60858355 65.3125 173.375 C68.39599755 178.51416258 67.36283742 184.16263627 66 189.6875 C62.13657391 204.68699553 55.22059472 217.96232837 42.140625 226.67578125 C30.73659734 233.31714418 19.52767623 234.37531076 6.8125 231.3359375 C1.7950906 229.72153957 -2.2949022 227.29945207 -6.5625 224.25 C-7.449375 223.6725 -8.33625 223.095 -9.25 222.5 C-19.35917876 212.66404229 -22.54477096 201.05707733 -23.3046875 187.3125 C-24.28095036 175.71568059 -29.86346796 166.01122212 -38.6328125 158.52734375 C-40.62927628 157.20579789 -42.22091188 156.67148586 -44.5625 156.25 C-45.14257812 157.04664063 -45.14257812 157.04664063 -45.734375 157.859375 C-46.25515625 158.56578125 -46.7759375 159.2721875 -47.3125 160 C-47.82296875 160.69609375 -48.3334375 161.3921875 -48.859375 162.109375 C-50.62340365 164.32654862 -52.52539926 166.28375494 -54.5625 168.25 C-54.39234375 168.8584375 -54.2221875 169.466875 -54.046875 170.09375 C-46.33410121 197.99101689 -41.42576011 226.81105175 -55.25 254 C-63.47042288 268.00974325 -76.18893169 277.52862607 -91.6796875 282.1875 C-112.26207728 287.52557615 -134.24228206 286.70727203 -153.5625 277.25 C-157.06773593 275.11324659 -160.32146524 272.76470117 -163.5625 270.25 C-164.449375 269.651875 -165.33625 269.05375 -166.25 268.4375 C-175.44855469 259.73616448 -179.63395778 248.72581589 -180.0625 236.1875 C-179.61517947 223.57865252 -174.76522014 213.08334988 -165.58203125 204.37109375 C-156.07540594 196.79994904 -145.99945497 195.21785463 -134.19140625 193.86328125 C-122.9180566 192.41593718 -114.47520915 188.52324026 -106.5625 180.25 C-104.31610239 177.16120329 -103.5625 176.05672941 -103.5625 172.25 C-105.15696261 170.69761323 -105.15696261 170.69761323 -107.25 169.3125 C-109.68821796 167.59059466 -111.72823049 166.07498164 -113.79296875 163.89453125 C-116.30379282 162.0274196 -116.30379282 162.0274196 -118.46850586 162.4621582 C-120.76776606 163.15138362 -122.96277333 163.97389222 -125.1875 164.875 C-136.40130432 169.20893131 -146.7924617 170.62129644 -158.8125 170.5625 C-160.00182129 170.55758545 -161.19114258 170.5526709 -162.41650391 170.54760742 C-180.8038829 170.3027939 -197.19167112 166.19097858 -211.5625 154.25 C-212.20832031 153.72921875 -212.85414063 153.2084375 -213.51953125 152.671875 C-224.25397698 143.07629823 -230.871959 126.50153216 -231.73950195 112.3659668 C-232.19440658 88.85772827 -230.94402536 69.26372725 -214.91015625 50.66015625 C-206.87069437 42.40666543 -196.0028499 37.82590035 -184.51953125 37.15234375 C-172.24695248 37.55764688 -161.36054736 41.6474648 -152.5625 50.25 C-145.33064799 59.36684602 -142.56029103 68.24633166 -141.125 79.625 C-139.49386562 92.31061574 -136.4074787 102.4678315 -126.5625 111.25 C-123.32247094 113.56277138 -123.32247094 113.56277138 -119.5625 114.25 C-118.11545275 112.59577678 -118.11545275 112.59577678 -116.6875 110.5 C-114.53219788 107.45323785 -112.25536615 104.83794929 -109.5625 102.25 C-109.73265625 101.65316406 -109.9028125 101.05632812 -110.078125 100.44140625 C-111.74068855 94.48978246 -113.2579978 88.51112232 -114.6875 82.5 C-114.85797852 81.79174072 -115.02845703 81.08348145 -115.20410156 80.35375977 C-120.52004316 57.75572375 -118.91115491 33.220897 -106.76025391 13.07226562 C-101.08631411 4.4399202 -93.88025832 -2.20512278 -84.5625 -6.75 C-83.82386719 -7.12511719 -83.08523437 -7.50023437 -82.32421875 -7.88671875 C-56.88240905 -20.04275216 -22.37415219 -17.50415638 0 0 Z " fill="#FFFFFF" transform="translate(231.5625,40.75)"/>
<path d="M0 0 C3.59827589 0.80830835 5.09391516 2.51976867 7.15625 5.484375 C8.52920579 9.43162289 8.23963163 11.22106459 6.96875 15.234375 C5.15625 18.484375 5.15625 18.484375 3.40625 19.921875 C-0.52100893 20.90368973 -4.18646971 20.94473064 -8.09375 19.859375 C-10.78838303 17.74216334 -11.69324961 15.69366555 -12.84375 12.484375 C-12.84375 8.21000906 -12.25188237 6.08381942 -9.84375 2.546875 C-6.30390849 0.11323396 -4.21859545 -0.25311573 0 0 Z " fill="#FFFFFF" transform="translate(151.84375,165.515625)"/>
</svg>
